<?xml version="1.0" encoding="utf-8"?>
<!-- Generator: Adobe Illustrator 14.0.0, SVG Export Plug-In . SVG Version: 6.00 Build 43363)  -->
<!DOCTYPE svg PUBLIC "-//W3C//DTD SVG 1.1//EN" "http://www.w3.org/Graphics/SVG/1.1/DTD/svg11.dtd">
<svg version="1.1" id="Layer_1" xmlns="http://www.w3.org/2000/svg" xmlns:xlink="http://www.w3.org/1999/xlink" x="0px" y="0px"
	 width="800px" height="600px" viewBox="0 0 800 600" enable-background="new 0 0 800 600" xml:space="preserve">
<path fill="#FFD800" d="M425.321,232.62c0,3.993,5.796,5.925,7.856,6.311v0.902c-8.629,0.129-17.001,3.091-23.699,5.796h-0.772
	v-10.562c-3.349,3.735-12.751,9.273-19.449,9.273c-6.697,0-16.1-5.152-16.1-12.365v-26.404c0-3.993-6.697-8.114-8.629-9.273v-0.902
	c10.69-1.288,24.729-6.44,24.729-6.44h0.773v39.799c0,6.826,4.25,10.433,9.145,10.433c4.251,0,7.342-3.22,9.531-6.183v-27.305
	c0-3.993-7.728-8.243-10.175-9.273v-0.902c10.691-1.288,26.018-6.44,26.018-6.44h0.772V232.62z M490.621,237.514
	c0.257,0,0.386,0.129,0.386,0.257c0,0.387-3.735,6.312-12.493,6.312c-5.023,0-9.273-3.735-10.047-8.243
	c-5.538,4.637-10.175,8.5-18.031,8.5c-6.698,0-12.494-5.152-12.494-11.592c0-10.433,20.995-16.1,30.397-20.222v-16.744
	c0-2.576-2.447-4.766-5.281-4.766c-2.318,0-8.114,3.735-8.114,8.243c0,3.478-0.129,7.212-1.03,10.304
	c-1.159,4.122-3.735,7.213-8.759,7.213c-3.863,0-6.955-3.091-6.955-7.342c0-4.379,4.637-9.273,11.206-13.395
	c5.796-3.606,13.009-6.697,19.835-6.697c7.213,0,14.94,4.508,14.94,10.69v33.875c0,2.962,0.901,5.667,2.576,5.667
	C489.333,239.575,490.234,237.514,490.621,237.514z M454.171,229.786c0,4.25,2.318,8.629,6.697,8.629
	c3.478,0,5.409-2.061,7.471-4.25v-20.479C457.262,217.808,454.171,221.543,454.171,229.786z M546.647,206.86
	c0,5.41-3.092,8.758-8.114,8.758c-5.023,0-7.985-4.637-7.985-9.402c0-3.735,0.515-5.796,0.515-9.402c0-3.22-3.349-6.183-6.955-6.183
	c-9.016,0-12.107,10.69-12.107,19.835c0,14.168,8.114,22.668,19.964,22.668c5.023,0,8.759-2.576,11.077-4.895
	c1.674-1.674,2.061-2.833,2.576-2.833c0.386,0,0.644,0.387,0.644,0.773c0,5.925-9.273,18.161-22.797,18.161
	c-14.168,0-26.92-11.334-26.92-25.889c0-15.971,12.365-29.108,28.723-29.108C534.927,189.343,546.647,196.169,546.647,206.86z
	 M551.54,242.666v-1.03c5.41,0,7.084-2.447,7.084-8.501v-60.021c0-3.993-6.697-8.114-8.629-9.273v-0.902
	c10.69-1.288,23.827-6.568,23.827-6.568h0.773v59.892l12.235-10.175c2.19-2.061,3.478-4.122,3.478-7.341
	c0-3.993-2.061-6.956-7.47-6.956v-1.03h27.048v1.03c-5.796,0.129-15.714,7.857-20.093,13.009l18.032,30.783
	c0,0,2.446,6.054,8.371,6.054v1.03h-31.685v-1.03c3.478,0,4.509-0.773,4.509-2.833c0-1.546-1.288-3.864-1.288-3.864l-10.69-19.062
	l-2.447,1.803v15.456c0,6.054,1.159,8.501,6.568,8.501v1.03H551.54z M637.447,212.27c0.129,10.948,6.568,20.35,19.706,20.35
	c5.152,0,10.69-2.962,12.751-6.054c0.773-1.159,0.902-1.932,1.546-1.932c0.645,0,0.772,0.515,0.772,0.901
	c-1.932,8.501-10.947,18.805-22.282,18.805c-15.713,0-28.336-11.334-28.336-27.177s14.039-27.82,27.177-27.82
	c12.623,0,22.927,11.334,22.927,22.926H637.447z M657.411,211.11c0-8.115-1.03-20.866-8.63-20.866
	c-10.046,0-11.334,11.463-11.334,20.866H657.411z M717.045,188.57c4.766,0,8.5,4.122,8.5,8.887c0,4.637-2.061,9.66-6.826,9.66
	c-6.439,0-7.213-6.311-10.69-6.311c-2.447,0-4.637,3.993-4.637,7.47v24.858c0,6.054,1.417,8.501,6.826,8.501v1.03h-29.624v-1.03
	c5.41,0,6.827-2.447,6.827-8.501v-28.078c0-3.993-5.925-7.47-7.857-8.629v-0.902c10.69-1.288,23.056-7.213,23.056-7.213h0.772
	v13.138C705.195,197.844,709.703,188.57,717.045,188.57z M361.012,269.178c-1.634,8.499-8.497,14.544-17.484,14.544
	c-10.458,0-26.96-7.517-41.503-13.073h0.654c31.373,0,57.189-25.163,57.189-56.535c0-27.674-20.093-50.505-46.364-55.505
	c0.648-2.47,0.997-5.061,0.997-7.734c0-2.979-0.437-5.855-1.236-8.575c2.785-1.061,4.736-3.661,4.736-4.737
	c0-1.625-2.25-0.688-4.25-0.688c2.375-1.625,4.625-5.625,4.625-6.5s-0.5-2.125-1.375-2.125s-3.938,2.625-7.25,2.625
	c-1.285,0-2.969-0.928-4.5-1.815c-5.467-5.295-12.913-8.56-21.125-8.56c-14.903,0-27.291,10.735-29.872,24.894
	c-1.793,2.112-3.849,3.981-6.378,3.981c-5.812,0-6.5-3.25-8.688-3.25c-1.312,0-1.938,2.5-1.938,5.438s5.375,9.625,5.375,9.625
	s-2.188,2.562-2.188,4.062s2.062,2.438,3.5,2.438s3.375-1.688,7.5-1.688c3.292,0,4.201,0.596,6.846,0.837
	c1.424,2.301,3.147,4.395,5.115,6.233c-10.999,10.28-17.908,24.827-17.908,41.044c0,22.223,12.908,41.176,31.536,50.49
	c-17.484,0.653-26.961,8.496-26.961,17.32h0.817c0.163-4.412,4.411-8.988,9.477-8.988c21.242,0,36.437,23.204,62.418,23.204
	c18.464,0,37.254-9.804,38.888-26.962H361.012z M273.921,214.114c0-24.184,2.124-54.902,28.757-54.902
	c26.635,0,28.759,30.718,28.759,54.902s-1.961,54.902-28.595,54.902C276.208,269.017,273.921,238.298,273.921,214.114z"/>
</svg>
